<svg version="1.1" id="Layer_1" xmlns="http://www.w3.org/2000/svg" xmlns:xlink="http://www.w3.org/1999/xlink" x="0px" y="0px"
	width="200px" height="200px" viewBox="0 0 1024 1024" enable-background="new 0 0 1024 1024" xml:space="preserve">
<path fill="#000000" opacity="1.000000" stroke="none" 
	d="
M517.000183,622.270752 
	C428.702209,622.270752 340.904297,622.270752 252.341263,622.270752 
	C256.030334,616.292664 259.488037,610.682007 262.953094,605.075806 
	C279.152161,578.867065 294.959229,552.405334 311.656433,526.517761 
	C331.163147,496.274414 349.103790,465.093689 368.004913,434.492035 
	C382.088837,411.689606 396.081146,388.830658 410.137207,366.011047 
	C429.608398,334.400024 449.145325,302.829315 468.549652,271.177307 
	C472.722290,264.370972 476.363983,257.241272 480.411591,250.355377 
	C483.087433,245.803268 484.684204,245.846161 487.292999,250.390152 
	C490.112518,255.301254 492.729919,260.320099 494.688293,265.658875 
	C497.703827,273.879578 502.329987,281.197144 507.701019,288.031342 
	C509.942322,290.883209 509.665649,293.090546 507.771210,296.078888 
	C497.708771,311.951508 486.795013,327.275574 477.977844,343.957581 
	C473.249237,352.903992 467.169250,361.130829 461.797424,369.743713 
	C451.502686,386.249878 441.280975,402.801605 431.023529,419.331055 
	C421.817444,434.166229 412.535583,448.954956 403.416473,463.843384 
	C396.645142,474.898743 390.395203,486.284607 383.349060,497.157837 
	C373.309479,512.650330 364.322845,528.782959 354.073059,544.156189 
	C348.645935,552.296021 344.161224,561.082703 338.285675,568.975220 
	C337.832184,569.584412 337.768890,570.484009 337.568451,571.110474 
	C339.056458,573.194641 341.038574,572.607971 342.780670,572.609070 
	C385.601440,572.637085 428.422577,572.734802 471.242920,572.602295 
	C526.036377,572.432678 580.829163,572.050415 635.622498,571.808105 
	C651.614136,571.737427 667.606995,571.912231 683.597900,571.787537 
	C687.185242,571.759583 689.441772,572.923096 691.172302,576.120850 
	C698.632568,589.906006 707.693665,602.702148 716.052673,615.933533 
	C716.986633,617.411865 718.500000,618.718384 718.115173,622.270813 
	C651.243530,622.270813 584.371887,622.270813 517.000183,622.270752 
z"/>
<path fill="#000000" opacity="1.000000" stroke="none" 
	d="
M572.559204,250.493973 
	C600.315369,293.878418 627.939026,336.918701 655.400085,380.062469 
	C679.909668,418.569183 704.322510,457.138062 728.621338,495.778107 
	C746.357239,523.981812 763.668579,552.453491 781.514587,580.586609 
	C788.914490,592.252014 796.163879,604.046875 804.462952,615.132935 
	C805.795410,616.912842 807.697876,618.548584 807.432251,621.360718 
	C794.391357,621.360718 781.435730,621.359314 768.480103,621.362122 
	C766.313538,621.362610 763.988708,620.870605 762.008972,621.483948 
	C755.052551,623.639099 751.856812,620.107056 748.415344,614.581604 
	C721.993347,572.161011 694.776672,530.229736 668.728882,487.583344 
	C643.196411,445.780579 616.292847,404.857635 590.438782,363.265411 
	C572.680847,334.697601 553.905518,306.757263 536.393127,278.043610 
	C525.639038,260.411041 515.346680,242.503799 503.779602,225.374664 
	C501.048950,221.331055 501.045898,217.773041 503.592377,213.004303 
	C509.718445,201.532028 517.303833,190.927261 523.038269,179.247589 
	C525.030029,175.190964 526.920532,175.202530 529.211975,179.381119 
	C541.072998,201.009827 555.524841,221.068390 567.464478,242.648102 
	C568.912231,245.264786 570.716797,247.684082 572.559204,250.493973 
z"/>
<path fill="#000000" opacity="1.000000" stroke="none" 
	d="
M601.385742,433.662720 
	C624.093994,469.623901 647.150696,504.947083 668.787048,540.986389 
	C666.766418,542.739197 665.204590,542.321960 663.757751,542.328064 
	C649.264160,542.389343 634.769897,542.352417 620.277222,542.491089 
	C617.465332,542.517944 615.739746,541.614807 614.218140,539.178711 
	C591.547485,502.883057 568.825439,466.619293 546.006104,430.416992 
	C540.781616,422.128510 535.144836,414.099915 529.491882,405.643646 
	C526.507141,407.572968 524.844604,410.045288 523.201782,412.490540 
	C508.073486,435.008087 494.147461,458.293793 479.437103,481.074280 
	C469.870239,495.889648 461.551514,511.483429 451.255554,525.828918 
	C448.308868,529.934509 446.709381,534.711487 444.453827,539.159180 
	C443.457001,541.124817 442.395508,542.320435 439.985168,542.350586 
	C426.000366,542.525024 412.017487,542.852661 398.032837,543.047485 
	C395.737640,543.079468 393.411743,542.816406 391.382141,541.628906 
	C391.141174,540.078430 391.878845,538.921326 392.558716,537.799011 
	C404.547424,518.009888 416.710419,498.324463 428.529755,478.434875 
	C447.756805,446.079498 468.593109,414.731750 488.199615,382.614563 
	C500.256927,362.863647 512.603760,343.289368 524.836975,323.645996 
	C527.188721,319.869812 528.649414,319.824036 531.267883,323.910828 
	C538.993591,335.969025 546.492432,348.172546 554.209595,360.236359 
	C569.821655,384.641754 585.519165,408.992584 601.385742,433.662720 
z"/>
<path fill="#000000" opacity="1.000000" stroke="none" 
	d="
M487.968628,522.023865 
	C492.678223,515.311584 496.838898,508.676056 500.313263,501.652618 
	C501.362457,499.531616 502.695343,498.806763 504.925629,498.660522 
	C520.221313,497.657562 535.539185,497.703949 550.852783,497.469025 
	C553.090332,497.434753 554.511292,497.822845 555.660217,499.973267 
	C562.512817,512.799438 571.148682,524.439575 579.929810,535.977478 
	C581.006897,537.392700 582.494507,538.669067 582.178162,541.678101 
	C547.454956,541.678101 512.646240,541.678101 477.335724,541.678101 
	C478.790924,534.132935 484.219849,528.708862 487.968628,522.023865 
z"/>
<path fill="#000000" opacity="1.000000" stroke="none" 
	d="
M650.954468,689.593750 
	C655.509766,689.592224 659.640503,689.592224 663.399292,689.592224 
	C663.932190,690.459534 664.256897,690.739929 664.249023,691.010620 
	C663.691040,710.305664 665.849854,729.552856 665.257080,748.855896 
	C665.146667,752.448914 663.827576,753.238281 660.539917,753.423462 
	C655.345154,753.716003 651.760803,752.291382 648.261047,747.950195 
	C640.573547,738.414429 631.855957,729.719971 623.555054,718.974854 
	C623.555054,731.325928 623.555054,742.502014 623.555054,754.215027 
	C618.867981,754.215027 614.757385,754.242493 610.647400,754.204712 
	C608.149902,754.181763 607.750427,752.453857 607.750671,750.447632 
	C607.753174,730.496338 607.752136,710.545044 607.752136,690.265381 
	C613.691833,689.226135 618.913025,688.404968 623.548157,694.375916 
	C630.572876,703.425110 638.551453,711.734558 646.144775,720.340637 
	C646.900879,721.197632 647.795288,721.932617 648.855225,722.943237 
	C648.855225,713.098389 648.799927,703.603455 648.909973,694.110413 
	C648.928162,692.545166 647.727478,690.267517 650.954468,689.593750 
z"/>
<path fill="#000000" opacity="1.000000" stroke="none" 
	d="
M465.403076,742.546997 
	C464.185577,740.927917 462.894623,739.716675 462.264221,738.226074 
	C460.956543,735.134155 458.883514,735.396484 456.139709,735.868286 
	C452.940643,736.418335 452.004181,738.119751 452.118927,740.989319 
	C452.158752,741.985291 452.050018,742.986389 452.033844,743.985596 
	C451.854187,755.089600 451.143463,755.665649 439.988068,754.252686 
	C438.106812,754.014404 436.773499,753.535278 436.729279,751.365601 
	C436.316010,731.086426 435.330231,710.813538 435.765717,690.647644 
	C437.861511,689.223083 439.916260,689.745789 441.845551,689.791748 
	C451.492981,690.021851 461.139465,690.313538 470.783264,690.666870 
	C482.219879,691.085754 491.496918,702.276062 489.890808,713.624146 
	C488.833679,721.093201 487.519928,723.329041 478.435547,732.978943 
	C482.494446,739.288574 486.602600,745.674805 491.312347,752.996277 
	C485.135345,753.296875 479.960266,753.739624 474.787903,753.710083 
	C472.605499,753.697632 471.783203,751.278503 470.601593,749.714722 
	C468.895111,747.456238 467.281830,745.127258 465.403076,742.546997 
M466.634857,720.585754 
	C474.025513,717.492798 475.718140,711.205139 470.290741,707.005127 
	C468.349823,705.503052 454.475128,704.230408 452.840118,705.804749 
	C449.645569,708.880981 452.175110,712.685059 452.038177,716.172546 
	C451.903015,719.615662 453.395844,720.964050 456.815674,720.723633 
	C459.795013,720.514221 462.799377,720.660461 466.634857,720.585754 
z"/>
<path fill="#000000" opacity="1.000000" stroke="none" 
	d="
M581.212891,729.682129 
	C573.712219,745.236572 562.360046,754.441101 544.773499,754.294678 
	C540.708801,754.260803 536.897766,753.254211 533.287354,751.378845 
	C520.491577,744.732239 511.373474,727.929443 514.072937,715.910950 
	C517.528809,700.524841 530.418274,689.710327 546.454102,688.742493 
	C567.455933,687.474976 586.895264,710.071411 581.212891,729.682129 
M533.944275,711.459595 
	C531.150085,714.874756 528.702271,718.534546 529.584534,723.189758 
	C531.342285,732.463501 541.650085,739.294434 550.976135,737.802856 
	C561.725037,736.083862 569.036377,722.420715 562.790283,713.952637 
	C555.346008,703.860107 543.715393,702.394836 533.944275,711.459595 
z"/>
<path fill="#000000" opacity="1.000000" stroke="none" 
	d="
M304.066711,706.957031 
	C311.754089,722.911072 319.277527,738.528748 327.352264,755.290894 
	C320.502350,754.102112 315.065033,754.276062 309.636536,754.414429 
	C307.053925,754.480286 306.677856,752.675049 306.168884,750.956909 
	C304.885162,746.623535 302.195038,744.893188 297.596619,745.349487 
	C291.486053,745.955933 285.353455,746.446106 279.176178,745.602966 
	C275.750977,745.135559 275.043091,748.229248 274.707489,750.553833 
	C274.153015,754.394897 272.199188,755.481628 268.601257,755.304810 
	C264.030731,755.080139 259.440857,755.250488 254.200775,755.250488 
	C257.107544,746.999451 261.119476,740.528442 264.509033,733.747559 
	C270.901825,720.958557 277.268799,708.137268 282.989319,695.042236 
	C284.968658,690.511292 287.767181,690.059509 291.805695,689.762634 
	C295.876495,689.463379 297.367462,691.504761 298.627533,694.764832 
	C300.185028,698.794434 302.126923,702.675476 304.066711,706.957031 
M287.775024,720.322693 
	C286.451935,723.852844 285.128876,727.382996 283.550812,731.593506 
	C287.374878,731.593506 290.493927,731.639282 293.610931,731.579163 
	C296.161285,731.529968 296.736267,730.162537 295.908417,727.904602 
	C294.331268,723.602722 292.726318,719.319824 289.899139,714.969849 
	C289.129242,716.916626 288.587982,718.285156 287.775024,720.322693 
z"/>
<path fill="#000000" opacity="1.000000" stroke="none" 
	d="
M413.914246,752.953125 
	C408.406708,755.575195 402.671997,753.988586 397.026276,753.948303 
	C395.449432,753.937134 395.121185,751.839783 394.671906,750.437378 
	C393.249695,745.998108 390.736633,744.245789 385.682495,744.918457 
	C379.790070,745.702637 373.714691,745.441956 367.741089,745.160400 
	C364.265228,744.996460 362.251160,746.116943 361.635254,749.434937 
	C360.881866,753.493591 358.561615,754.918884 354.566376,754.374878 
	C351.170166,753.912415 347.633240,754.998535 344.177063,753.649780 
	C343.943817,749.826294 345.899689,746.814209 347.406616,743.747192 
	C355.698212,726.871643 363.903503,709.956116 370.737274,692.425903 
	C371.996307,689.196167 374.228638,688.875854 377.033142,688.935486 
	C379.925568,688.997009 382.737885,688.146667 384.527985,691.977295 
	C392.837067,709.757812 401.445374,727.398621 409.972198,745.077026 
	C411.197266,747.616943 412.562561,750.089233 413.914246,752.953125 
M377.609406,730.664001 
	C379.992279,730.481445 382.467407,731.082947 384.939819,730.117065 
	C383.412231,724.496277 380.642334,719.891663 377.367706,714.561707 
	C375.031586,720.126587 372.981079,725.011108 370.932739,729.890381 
	C373.132751,731.081726 374.982025,730.482788 377.609406,730.664001 
z"/>
<path fill="#000000" opacity="1.000000" stroke="none" 
	d="
M749.997925,754.339478 
	C741.228088,754.339966 732.957397,754.339966 724.358521,754.339966 
	C724.906982,733.015930 724.886108,711.667053 724.333374,689.842407 
	C729.444641,689.842407 734.814575,689.842407 740.584595,689.842407 
	C741.733826,692.066711 740.256592,694.660278 740.293945,697.211548 
	C740.462097,708.697510 740.577332,720.194275 740.234253,731.672974 
	C740.084229,736.690430 741.984131,737.942993 746.617737,737.754089 
	C754.219849,737.444153 761.843811,737.670166 769.729309,737.670166 
	C769.168396,743.502319 770.831848,748.565247 769.792969,754.339050 
	C763.366394,754.339050 756.931763,754.339050 749.997925,754.339478 
z"/>
<path fill="#000000" opacity="1.000000" stroke="none" 
	d="
M807.350464,742.789124 
	C806.941895,746.856018 808.690735,750.409546 807.839111,754.216736 
	C801.618042,755.266479 795.797180,751.989563 790.490540,753.974731 
	C788.819397,752.995056 788.816101,751.947693 788.899048,750.973999 
	C790.470886,732.533875 789.524353,714.100647 788.586548,695.681519 
	C788.335571,690.751465 790.113708,689.196350 794.838074,689.618652 
	C798.757874,689.968994 802.733826,689.690308 807.349548,689.690308 
	C807.349548,707.488708 807.349548,724.901611 807.350464,742.789124 
z"/>
</svg>